# xmcd
# Copyright (C) 1995-1998 Ti Kan
#
# Track frame offsets:
#       150
#       12443
#       25688
#       40642
#       52191
#       67226
#       81301
#       99583
#       112387
#       124748
#       136985
#       149849
#
# Disc length: 2140 seconds
#
# Revision: 0
# Processed by: cddbd v1.5.2PL0 Copyright (c) Steve Scherf et al.
# Submitted via: CD-Import v1.0
#
DISCID=b7085a0c
DTITLE=Saltbee - Shoebird
DYEAR=08
DGENRE=
TTITLE0=Sleep It Off, Baby
TTITLE1=Why I Didn't Write This Song
TTITLE2=Snowslider
TTITLE3=Shoebird
TTITLE4=Big Sleep
TTITLE5=Friday I Think
TTITLE6=Yuki
TTITLE7=The Soul Is The Weakest Part
TTITLE8=Land Of Plenty
TTITLE9=Head Full Of Snow
TTITLE10=Un Homme Dur
TTITLE11=Trouble Oh Trouble
EXTD=
EXTT0=
EXTT1=
EXTT2=
EXTT3=
EXTT4=
EXTT5=
EXTT6=
EXTT7=
EXTT8=
EXTT9=
EXTT10=
EXTT11=
PLAYORDER=
